<svg enable-background="new 0 0 174 41.8" viewBox="0 0 174 41.8" xmlns="http://www.w3.org/2000/svg" xmlns:xlink="http://www.w3.org/1999/xlink"><linearGradient id="a" gradientTransform="matrix(41.791 0 0 -41.779 18437.5332 22961.8105)" gradientUnits="userSpaceOnUse" x1="-440.6843" x2="-440.6843" y1="549.6014" y2="548.6014"><stop offset="0" stop-color="#09acf5"/><stop offset="1" stop-color="#62db54"/></linearGradient><g enable-background="new" fill="#c1c1c1" transform="translate(-138 -23.111)"><path d="m199.4 60.2c-1 0-1.8-.2-2.6-.7-.7-.5-1.3-1.2-1.7-2-.4-.9-.6-1.9-.6-3 0-1.2.2-2.2.6-3.1s1-1.5 1.7-2 1.6-.7 2.6-.7c.8 0 1.5.2 2.1.5s1.2.7 1.6 1.3.6 1.3.7 2h-1.8c-.1-.7-.4-1.3-.8-1.7s-1-.6-1.7-.6c-.6 0-1.1.2-1.6.5s-.8.8-1.1 1.5-.4 1.4-.4 2.3.1 1.7.4 2.3c.3.7.6 1.1 1.1 1.5s1 .5 1.6.5c.5 0 .9-.1 1.3-.3s.7-.5.9-.9.4-.8.4-1.3h1.9c-.1.8-.3 1.5-.7 2.1s-.9 1.1-1.5 1.4c-.8.2-1.5.4-2.4.4z"/><path d="m209.6 60.2c-.9 0-1.7-.2-2.3-.6-.7-.4-1.2-.9-1.5-1.6-.4-.7-.5-1.5-.5-2.4 0-1 .2-1.8.5-2.5.4-.7.9-1.2 1.5-1.6.7-.4 1.4-.6 2.4-.6 1.4 0 2.4.4 3.2 1.2s1.2 1.9 1.2 3.4c0 .9-.2 1.8-.5 2.4-.4.7-.9 1.2-1.5 1.6-.8.5-1.6.7-2.5.7zm0-1.4c.9 0 1.5-.3 2-.9s.7-1.4.7-2.4-.2-1.8-.7-2.4-1.2-.9-2-.9c-.9 0-1.5.3-2 .9s-.7 1.4-.7 2.4.2 1.8.7 2.4c.5.7 1.1.9 2 .9z"/><path d="m219.5 51c.6 0 1.2.1 1.7.4s.9.6 1.2 1v-4.1h1.6v11.7h-1.5v-1.2c-.3.4-.7.8-1.2 1-.5.3-1.1.4-1.7.4-.8 0-1.5-.2-2.1-.6s-1.1-.9-1.4-1.6-.5-1.5-.5-2.4.2-1.7.5-2.4.8-1.2 1.4-1.6 1.3-.6 2-.6zm.4 7.8c.6 0 1.1-.2 1.5-.5s.8-.8 1-1.3v-2.9c-.2-.6-.5-1-1-1.3-.4-.3-1-.5-1.5-.5s-1 .1-1.4.4-.7.7-1 1.1c-.2.5-.3 1-.3 1.7 0 .6.1 1.2.3 1.7s.5.9 1 1.1c.4.4.9.5 1.4.5z"/><path d="m226.4 60v-1.3h7.9v1.3zm1.2-7.5v-1.3h2.9v1.3zm2-2.8v-1.7h1.8v1.7zm.1 10.3v-8.8h1.6v8.8z"/><path d="m236.9 60v-8.8h1.5l.1 2v6.8zm6.3 0v-5.6c0-.6-.2-1.1-.5-1.5s-.8-.6-1.4-.6c-.7 0-1.2.2-1.7.7s-.9 1.2-1.2 2.2l-.3-1.8c.3-.8.8-1.5 1.4-1.9s1.3-.6 2-.6 1.2.1 1.7.4.9.7 1.1 1.2c.3.5.4 1.1.4 1.8v5.7z"/><path d="m253.6 52.5v-1.3h1.5v7.8c0 1.3-.3 2.3-1 3s-1.8 1-3.2 1c-.8 0-1.5-.1-2-.3-.6-.2-1-.5-1.3-1-.3-.4-.5-.9-.6-1.6h1.7c.1.5.3.9.6 1.1.4.3.9.4 1.7.4s1.5-.2 1.9-.6.6-1 .6-1.8v-1.2c-.3.4-.7.8-1.2 1.1s-1 .4-1.7.4c-.8 0-1.4-.2-2-.5-.6-.4-1-.9-1.4-1.5-.3-.6-.5-1.4-.5-2.2 0-.9.2-1.6.5-2.3.3-.6.8-1.1 1.4-1.5.6-.3 1.3-.5 2-.5.6 0 1.2.1 1.6.4s1.2.6 1.4 1.1zm-2.5 5.7c.6 0 1.1-.2 1.5-.5.5-.3.8-.8 1-1.4v-2.2c-.2-.6-.5-1-1-1.4-.5-.3-1-.5-1.5-.5s-1 .1-1.4.4-.7.6-.9 1-.3 1-.3 1.5c0 .6.1 1.1.3 1.5.2.5.5.8.9 1.1.4.4.9.5 1.4.5z"/><path d="m267.9 60v-11.2h1.7v11.2zm1.4-5.1v-1.4h5.4v1.4zm5.2 5.1v-11.2h1.7v11.2z"/><path d="m282.4 60.2c-.9 0-1.7-.2-2.3-.6s-1.2-.9-1.5-1.6c-.4-.7-.5-1.5-.5-2.4 0-1 .2-1.8.5-2.5.4-.7.9-1.2 1.5-1.6.7-.4 1.4-.6 2.4-.6 1.4 0 2.4.4 3.2 1.2s1.2 1.9 1.2 3.4c0 .9-.2 1.8-.5 2.4-.4.7-.9 1.2-1.5 1.6-.8.5-1.6.7-2.5.7zm0-1.4c.9 0 1.5-.3 2-.9s.7-1.4.7-2.4-.2-1.8-.7-2.4-1.2-.9-2-.9c-.9 0-1.5.3-2 .9s-.7 1.4-.7 2.4.2 1.8.7 2.4c.5.7 1.1.9 2 .9z"/><path d="m288.4 60v-8.8h1.4l.1 1.7v7.1zm3.7 0v-6.4c0-.4-.1-.7-.2-.9s-.4-.3-.6-.3c-.4 0-.8.3-1 .8s-.5 1.3-.6 2.3v-1.4c0-.6.1-1.2.3-1.6s.5-.8.8-1 .7-.4 1-.4c.6 0 1.1.2 1.4.6s.5 1 .5 1.8v6.5zm3.6 0v-6.4c0-.4-.1-.7-.2-.9s-.3-.3-.6-.3c-.4 0-.7.2-1 .7s-.5 1.3-.6 2.3l-.1-1.4c0-1 .3-1.7.7-2.2s.9-.8 1.6-.8c.6 0 1 .2 1.4.6.3.4.5 1 .5 1.8v6.6z"/><path d="m303.3 60.2c-.9 0-1.7-.2-2.4-.6s-1.2-.9-1.5-1.6c-.4-.7-.5-1.5-.5-2.5s.2-1.8.5-2.5c.4-.7.9-1.2 1.5-1.6.7-.4 1.5-.5 2.4-.5 1.4 0 2.5.4 3.2 1.2s1 1.9.9 3.2h-7.3v-1.2h5.6c0-.6-.3-1-.7-1.4-.4-.3-1-.5-1.7-.5-.9 0-1.6.3-2.1.9s-.7 1.4-.7 2.4c0 .6.1 1.2.3 1.7s.5.9 1 1.1.9.4 1.5.4c.7 0 1.3-.2 1.7-.5.5-.3.7-.8.9-1.3h1.6c-.1 1-.6 1.8-1.3 2.3s-1.7 1-2.9 1z"/></g><g><path d="m34.9 41.8h-28c-3.8-.1-6.9-3.2-6.9-7v-15.2c0-1.9.8-3.8 2.3-5.1l14-12.7c2.6-2.3 6.6-2.3 9.2 0l14 12.7c1.5 1.3 2.3 3.1 2.3 5.1v15.2c0 3.8-3.1 6.9-6.9 7zm-14-37.5c-.7 0-1.3.2-1.9.6l-14 12.7c-.6.5-.9 1.3-.8 2.1v15.3c0 1.5 1.2 2.7 2.7 2.8h27.8c1.5 0 2.7-1.3 2.7-2.8v-15.2c-.1-.8-.4-1.5-.8-2.1l-14-12.7c-.5-.5-1.1-.7-1.7-.7z" fill="url(#a)"/><path d="m16.3 31.8c-.4 0-.8-.1-1.1-.4l-5.6-5.6c-.6-.6-.6-1.5 0-2.1l5.6-5.6c.6-.6 1.5-.6 2.1 0s.6 1.5 0 2.1l-4.5 4.5 4.5 4.5c.6.6.6 1.5 0 2.1-.2.3-.6.5-1 .5z" fill="#62db54"/><path d="m25.6 31.8c-.4 0-.8-.1-1.1-.4-.6-.6-.6-1.5 0-2.1l4.5-4.5-4.5-4.5c-.6-.6-.6-1.5 0-2.1s1.5-.6 2.1 0l5.6 5.6c.3.3.4.7.4 1.1s-.2.8-.4 1.1l-5.6 5.6c-.2 0-.6.2-1 .2z" fill="#09acf5"/></g><path d="m173.5 38.389v-17" fill="none" stroke="#c1c1c1"/></svg>